<mxfile host="app.diagrams.net" modified="2023-04-15T16:24:23.876Z" agent="Mozilla/5.0 (Windows NT 10.0; Win64; x64) AppleWebKit/537.36 (KHTML, like Gecko) Chrome/112.0.0.0 Safari/537.36" etag="gzo1cG8CJNvkDmP9Ajd3" version="21.1.8" type="google">
  <diagram name="Página-1" id="Wvj03VJYG3RrhhObb811">
    <mxGraphModel dx="1194" dy="776" grid="1" gridSize="10" guides="1" tooltips="1" connect="1" arrows="1" fold="1" page="1" pageScale="1" pageWidth="827" pageHeight="1169" math="0" shadow="0">
      <root>
        <mxCell id="0" />
        <mxCell id="1" parent="0" />
        <mxCell id="5I44XcXzlPrrBnjWrfc3-44" style="edgeStyle=orthogonalEdgeStyle;rounded=0;orthogonalLoop=1;jettySize=auto;html=1;labelBackgroundColor=none;fontColor=default;" edge="1" parent="1">
          <mxGeometry relative="1" as="geometry">
            <mxPoint x="184" y="1193" as="targetPoint" />
            <mxPoint x="314" y="465" as="sourcePoint" />
            <Array as="points">
              <mxPoint x="314" y="1193" />
            </Array>
          </mxGeometry>
        </mxCell>
        <mxCell id="5I44XcXzlPrrBnjWrfc3-4" style="edgeStyle=orthogonalEdgeStyle;rounded=0;orthogonalLoop=1;jettySize=auto;html=1;entryX=0.5;entryY=0;entryDx=0;entryDy=0;labelBackgroundColor=none;fontColor=default;" edge="1" parent="1" source="5I44XcXzlPrrBnjWrfc3-1" target="5I44XcXzlPrrBnjWrfc3-2">
          <mxGeometry relative="1" as="geometry" />
        </mxCell>
        <mxCell id="5I44XcXzlPrrBnjWrfc3-1" value="inicio" style="ellipse;whiteSpace=wrap;html=1;labelBackgroundColor=none;" vertex="1" parent="1">
          <mxGeometry x="50" y="80" width="126" height="80" as="geometry" />
        </mxCell>
        <mxCell id="5I44XcXzlPrrBnjWrfc3-5" style="edgeStyle=orthogonalEdgeStyle;rounded=0;orthogonalLoop=1;jettySize=auto;html=1;labelBackgroundColor=none;fontColor=default;" edge="1" parent="1" source="5I44XcXzlPrrBnjWrfc3-2">
          <mxGeometry relative="1" as="geometry">
            <mxPoint x="113" y="390" as="targetPoint" />
          </mxGeometry>
        </mxCell>
        <mxCell id="5I44XcXzlPrrBnjWrfc3-2" value="Ir para academia" style="rounded=0;whiteSpace=wrap;html=1;labelBackgroundColor=none;" vertex="1" parent="1">
          <mxGeometry x="53" y="250" width="120" height="60" as="geometry" />
        </mxCell>
        <mxCell id="5I44XcXzlPrrBnjWrfc3-10" style="edgeStyle=orthogonalEdgeStyle;rounded=0;orthogonalLoop=1;jettySize=auto;html=1;labelBackgroundColor=none;fontColor=default;" edge="1" parent="1" source="5I44XcXzlPrrBnjWrfc3-9">
          <mxGeometry relative="1" as="geometry">
            <mxPoint x="113" y="580" as="targetPoint" />
            <Array as="points">
              <mxPoint x="113" y="440" />
            </Array>
          </mxGeometry>
        </mxCell>
        <mxCell id="5I44XcXzlPrrBnjWrfc3-11" value="&lt;font style=&quot;font-size: 15px;&quot;&gt;sim&lt;/font&gt;" style="edgeLabel;html=1;align=center;verticalAlign=middle;resizable=0;points=[];labelBackgroundColor=default;" vertex="1" connectable="0" parent="5I44XcXzlPrrBnjWrfc3-10">
          <mxGeometry x="-0.1811" relative="1" as="geometry">
            <mxPoint as="offset" />
          </mxGeometry>
        </mxCell>
        <mxCell id="5I44XcXzlPrrBnjWrfc3-53" style="edgeStyle=orthogonalEdgeStyle;rounded=0;orthogonalLoop=1;jettySize=auto;html=1;" edge="1" parent="1" source="5I44XcXzlPrrBnjWrfc3-9" target="5I44XcXzlPrrBnjWrfc3-18">
          <mxGeometry relative="1" as="geometry" />
        </mxCell>
        <mxCell id="5I44XcXzlPrrBnjWrfc3-9" value="você quer &lt;br&gt;ir para &lt;br&gt;academia?" style="rhombus;whiteSpace=wrap;html=1;labelBackgroundColor=none;" vertex="1" parent="1">
          <mxGeometry x="63" y="390" width="100" height="100" as="geometry" />
        </mxCell>
        <mxCell id="5I44XcXzlPrrBnjWrfc3-19" style="edgeStyle=orthogonalEdgeStyle;rounded=0;orthogonalLoop=1;jettySize=auto;html=1;labelBackgroundColor=none;fontColor=default;" edge="1" parent="1" source="5I44XcXzlPrrBnjWrfc3-12">
          <mxGeometry relative="1" as="geometry">
            <mxPoint x="113" y="680" as="targetPoint" />
          </mxGeometry>
        </mxCell>
        <mxCell id="5I44XcXzlPrrBnjWrfc3-12" value="&lt;p style=&quot;line-height:1.38;margin-top:0pt;margin-bottom:0pt;&quot; dir=&quot;ltr&quot;&gt;&lt;/p&gt;&lt;p style=&quot;line-height:1.38;margin-top:0pt;margin-bottom:0pt;&quot; dir=&quot;ltr&quot;&gt;&lt;/p&gt;&lt;p style=&quot;line-height:1.38;margin-top:0pt;margin-bottom:0pt;&quot; dir=&quot;ltr&quot;&gt;&lt;/p&gt;&lt;div&gt;&lt;/div&gt;&lt;span id=&quot;docs-internal-guid-9f0f1662-7fff-f04a-6785-770534e7af5a&quot;&gt;Levantar e ir toma banho&lt;br&gt;&lt;/span&gt;" style="rounded=0;whiteSpace=wrap;html=1;labelBackgroundColor=none;" vertex="1" parent="1">
          <mxGeometry x="51" y="580" width="124" height="50" as="geometry" />
        </mxCell>
        <mxCell id="5I44XcXzlPrrBnjWrfc3-18" value="volta a dormir" style="rounded=1;whiteSpace=wrap;html=1;labelBackgroundColor=none;" vertex="1" parent="1">
          <mxGeometry x="270" y="415" width="90" height="50" as="geometry" />
        </mxCell>
        <mxCell id="5I44XcXzlPrrBnjWrfc3-21" style="edgeStyle=orthogonalEdgeStyle;rounded=0;orthogonalLoop=1;jettySize=auto;html=1;labelBackgroundColor=none;fontColor=default;" edge="1" parent="1" source="5I44XcXzlPrrBnjWrfc3-20" target="5I44XcXzlPrrBnjWrfc3-22">
          <mxGeometry relative="1" as="geometry">
            <mxPoint x="113" y="800" as="targetPoint" />
          </mxGeometry>
        </mxCell>
        <mxCell id="5I44XcXzlPrrBnjWrfc3-20" value="sair do banho e ir se vestir" style="rounded=0;whiteSpace=wrap;html=1;labelBackgroundColor=none;" vertex="1" parent="1">
          <mxGeometry x="53" y="680" width="120" height="60" as="geometry" />
        </mxCell>
        <mxCell id="5I44XcXzlPrrBnjWrfc3-23" style="edgeStyle=orthogonalEdgeStyle;rounded=0;orthogonalLoop=1;jettySize=auto;html=1;labelBackgroundColor=none;fontColor=default;" edge="1" parent="1" source="5I44XcXzlPrrBnjWrfc3-22">
          <mxGeometry relative="1" as="geometry">
            <mxPoint x="113" y="920" as="targetPoint" />
          </mxGeometry>
        </mxCell>
        <mxCell id="5I44XcXzlPrrBnjWrfc3-22" value="arrumar a mochila com itens que irei levar" style="rounded=0;whiteSpace=wrap;html=1;labelBackgroundColor=none;" vertex="1" parent="1">
          <mxGeometry x="53" y="790" width="120" height="60" as="geometry" />
        </mxCell>
        <mxCell id="5I44XcXzlPrrBnjWrfc3-27" style="edgeStyle=orthogonalEdgeStyle;rounded=0;orthogonalLoop=1;jettySize=auto;html=1;labelBackgroundColor=none;fontColor=default;" edge="1" parent="1" source="5I44XcXzlPrrBnjWrfc3-24">
          <mxGeometry relative="1" as="geometry">
            <mxPoint x="113" y="1030" as="targetPoint" />
          </mxGeometry>
        </mxCell>
        <mxCell id="5I44XcXzlPrrBnjWrfc3-24" value="&lt;font style=&quot;font-size: 12px;&quot;&gt;ir para cozinha&lt;br&gt;tomar café da manhã&amp;nbsp;&lt;/font&gt;" style="rounded=0;whiteSpace=wrap;html=1;labelBackgroundColor=none;" vertex="1" parent="1">
          <mxGeometry x="53" y="920" width="120" height="60" as="geometry" />
        </mxCell>
        <mxCell id="5I44XcXzlPrrBnjWrfc3-40" style="edgeStyle=orthogonalEdgeStyle;rounded=0;orthogonalLoop=1;jettySize=auto;html=1;labelBackgroundColor=none;fontColor=default;" edge="1" parent="1" source="5I44XcXzlPrrBnjWrfc3-34">
          <mxGeometry relative="1" as="geometry">
            <mxPoint x="114" y="1150" as="targetPoint" />
          </mxGeometry>
        </mxCell>
        <mxCell id="5I44XcXzlPrrBnjWrfc3-34" value="pegar a mochila e ir para academia" style="rounded=0;whiteSpace=wrap;html=1;labelBackgroundColor=none;" vertex="1" parent="1">
          <mxGeometry x="54" y="1030" width="120" height="60" as="geometry" />
        </mxCell>
        <mxCell id="5I44XcXzlPrrBnjWrfc3-37" value="fim" style="ellipse;whiteSpace=wrap;html=1;labelBackgroundColor=none;" vertex="1" parent="1">
          <mxGeometry x="54" y="1150" width="120" height="80" as="geometry" />
        </mxCell>
        <mxCell id="5I44XcXzlPrrBnjWrfc3-51" value="não" style="text;html=1;strokeColor=none;fillColor=default;align=center;verticalAlign=middle;whiteSpace=wrap;rounded=0;" vertex="1" parent="1">
          <mxGeometry x="200" y="432.5" width="34" height="15" as="geometry" />
        </mxCell>
      </root>
    </mxGraphModel>
  </diagram>
</mxfile>
